<svg id="abf4fa06-80b2-4308-9211-2407c8f85a72" data-name="Layer 1" xmlns="http://www.w3.org/2000/svg" viewBox="0 0 46.985 19.97"><defs><style>.\31 7d36ad9-f5c1-4aa4-9166-3a49576732fc{fill:#f9572e;}</style></defs><title>arrow-next</title><path class="17d36ad9-f5c1-4aa4-9166-3a49576732fc" d="M59.568,46.316h-35a1.5,1.5,0,1,1,0-3h35A1.5,1.5,0,1,1,59.568,46.316Z" transform="translate(-23.068 -34.832)"/><path class="17d36ad9-f5c1-4aa4-9166-3a49576732fc" d="M60.068,54.8a1.5,1.5,0,0,1-1.061-2.561l7.425-7.424-7.425-7.425a1.5,1.5,0,0,1,2.121-2.121l8.485,8.485a1.5,1.5,0,0,1,0,2.121l-8.485,8.485A1.5,1.5,0,0,1,60.068,54.8Z" transform="translate(-23.068 -34.832)"/></svg>