<svg id="02c775e1-5115-4791-b60d-0a1628095f87" data-name="Layer 1" xmlns="http://www.w3.org/2000/svg" viewBox="0 0 46.985 19.97"><defs><style>.\30 f120382-61b5-46a9-991d-7ff794c90b63{fill:#f9572e;}</style></defs><title>arrow-prev</title><path class="0f120382-61b5-46a9-991d-7ff794c90b63" d="M33.554,43.317h35a1.5,1.5,0,1,1,0,3h-35A1.5,1.5,0,1,1,33.554,43.317Z" transform="translate(-23.068 -34.832)"/><path class="0f120382-61b5-46a9-991d-7ff794c90b63" d="M33.054,34.832a1.5,1.5,0,0,1,1.061,2.561l-7.425,7.424,7.425,7.425a1.5,1.5,0,0,1-2.121,2.121l-8.485-8.485a1.5,1.5,0,0,1,0-2.121l8.485-8.485A1.5,1.5,0,0,1,33.054,34.832Z" transform="translate(-23.068 -34.832)"/></svg>