<svg data-name="Layer 1" xmlns="http://www.w3.org/2000/svg" viewBox="0 0 22.5 22.5"><path class="4e3676ca-b9ba-4651-8fa3-6f00d0e78d79" d="M38.25,33.426H54.974a2.819,2.819,0,0,1,2.888,2.888V53.038a2.819,2.819,0,0,1-2.888,2.888H38.25a2.819,2.819,0,0,1-2.888-2.888V36.313a2.819,2.819,0,0,1,2.888-2.888h0Zm13.5,2.5a1.016,1.016,0,0,0-1.013,1.013v2.425a1.016,1.016,0,0,0,1.013,1.013H54.3a1.016,1.016,0,0,0,1.012-1.013V36.938A1.016,1.016,0,0,0,54.3,35.925H51.752Zm3.567,7.015H53.338a6.587,6.587,0,0,1,.289,1.93,7,7,0,0,1-13.988,0,6.588,6.588,0,0,1,.289-1.93H37.863v9.5a0.9,0.9,0,0,0,.895.895H54.425a0.9,0.9,0,0,0,.894-0.895v-9.5Zm-8.686-2.693a4.381,4.381,0,1,0,4.519,4.379,4.451,4.451,0,0,0-4.519-4.379h0Zm0,0" transform="translate(-35.362 -33.426)" style="fill:rgba(0,0,0,0);"/></svg>