<svg xmlns="http://www.w3.org/2000/svg" viewBox="0 0 836.22 136.94" width="180px"><path d="M59.39,58.29h54.45v54.45H59.39ZM138,34.09H35.19V136.94H138Z" style="fill:#1b1918"/><path d="M35.19,78.65h-11V24.2H78.65V78.65H59.39v24.2h43.46V0H0V102.85H35.19Q35.19,90.75,35.19,78.65Zm.1.36-.1,23.84Z" style="fill:#e30016"/><path d="M221.07,118a17,17,0,0,1-1.66,7.44,15.34,15.34,0,0,1-5.41,6,30.18,30.18,0,0,1-9.71,4,61.85,61.85,0,0,1-14.65,1.48,61.07,61.07,0,0,1-9.57-.74,56.58,56.58,0,0,1-8.87-2.13,44.39,44.39,0,0,1-7.76-3.37,31.69,31.69,0,0,1-6.15-4.39l4.62-5.55a36.39,36.39,0,0,0,12.29,6.89A48.28,48.28,0,0,0,189.64,130q9.34,0,13.22-2.59a8.12,8.12,0,0,0,3.88-7.12,7.28,7.28,0,0,0-3.05-5.92q-3.05-2.4-10.35-4.71l-17.56-5.55q-8.69-2.77-13.13-7.07a14.59,14.59,0,0,1-4.44-11,14.44,14.44,0,0,1,1.62-6.61,15.76,15.76,0,0,1,5-5.64A27,27,0,0,1,173.6,70a49.73,49.73,0,0,1,12.8-1.43A55.78,55.78,0,0,1,204,71.4a45.5,45.5,0,0,1,7.67,3.37,31.68,31.68,0,0,1,6.15,4.39l-4.62,5.55a37.38,37.38,0,0,0-11.83-6.89,44.15,44.15,0,0,0-15-2.36q-6.93,0-10.4,2.4t-3.47,5.92a8.14,8.14,0,0,0,.65,3.37,7.53,7.53,0,0,0,2.17,2.68,16.67,16.67,0,0,0,4,2.31q2.5,1.06,6.19,2.26L203,100q8.41,2.68,13.22,7a14.18,14.18,0,0,1,4.81,11Zm64.24-40.67h-25v57.77H247V77.32H222V70.39h63.32ZM326,70.39a46.56,46.56,0,0,1,12.43,1.53,26.85,26.85,0,0,1,9.29,4.44,19.68,19.68,0,0,1,5.82,7.12,21.7,21.7,0,0,1,2,9.57,20.64,20.64,0,0,1-3.7,12.48,23,23,0,0,1-10.63,7.76l15.25,21.81H341.23l-13.59-19.41H306.11v19.41h-13.4V70.39H326Zm-19.87,6.93v31.43H326q7.3,0,11.28-3.84t4-11.88q0-8-4-11.88T326,77.32H306.11ZM401.78,75A23.32,23.32,0,0,0,393,76.67a19.1,19.1,0,0,0-7.16,5.08,25.12,25.12,0,0,0-4.85,8.64,37.9,37.9,0,0,0-1.8,12.34,37.9,37.9,0,0,0,1.8,12.34,25.11,25.11,0,0,0,4.85,8.64A19.1,19.1,0,0,0,393,128.8a24.25,24.25,0,0,0,17.66,0,19.1,19.1,0,0,0,7.16-5.08,25.11,25.11,0,0,0,4.85-8.64,37.89,37.89,0,0,0,1.8-12.34,37.89,37.89,0,0,0-1.8-12.34,25.12,25.12,0,0,0-4.85-8.64,19.1,19.1,0,0,0-7.16-5.08A23.32,23.32,0,0,0,401.78,75Zm0-6.47a48.51,48.51,0,0,1,15.11,2.22,32.19,32.19,0,0,1,11.65,6.56A29.5,29.5,0,0,1,436.07,88a37.67,37.67,0,0,1,2.68,14.7,37.67,37.67,0,0,1-2.68,14.7,29.5,29.5,0,0,1-7.53,10.72,32.19,32.19,0,0,1-11.65,6.56,52.75,52.75,0,0,1-30.27,0,32.14,32.14,0,0,1-11.69-6.56,29,29,0,0,1-7.49-10.72,38.25,38.25,0,0,1-2.63-14.7A38.25,38.25,0,0,1,367.44,88a29,29,0,0,1,7.49-10.72,32.14,32.14,0,0,1,11.69-6.56A48.94,48.94,0,0,1,401.78,68.54Zm61.47,66.55h-13.4V70.39h13.4Zm52.69-25.88H473.42v-8.32h42.52Zm43.44-38.82a46.56,46.56,0,0,1,12.43,1.53,26.85,26.85,0,0,1,9.29,4.44,19.68,19.68,0,0,1,5.82,7.12,23.52,23.52,0,0,1,0,19.13,19.68,19.68,0,0,1-5.82,7.12,26.85,26.85,0,0,1-9.29,4.44,46.56,46.56,0,0,1-12.43,1.53H539.51v19.41H526.1V70.39Zm-19.87,6.93v31.43h19.87q7.3,0,11.32-3.84t4-11.88q0-8-4-11.88t-11.32-3.84H539.51Zm92.9-6.93a46.56,46.56,0,0,1,12.43,1.53,26.85,26.85,0,0,1,9.29,4.44,19.68,19.68,0,0,1,5.82,7.12A21.7,21.7,0,0,1,662,93a20.64,20.64,0,0,1-3.7,12.48,23,23,0,0,1-10.63,7.76l15.25,21.81H647.65l-13.59-19.41H612.53v19.41h-13.4V70.39Zm-19.87,6.93v31.43H632.4q7.3,0,11.28-3.84t4-11.88q0-8-4-11.88T632.4,77.32H612.53ZM708.2,75a23.32,23.32,0,0,0-8.83,1.66,19.1,19.1,0,0,0-7.16,5.08,25.12,25.12,0,0,0-4.85,8.64,37.9,37.9,0,0,0-1.8,12.34,37.9,37.9,0,0,0,1.8,12.34,25.11,25.11,0,0,0,4.85,8.64,19.1,19.1,0,0,0,7.16,5.08,24.25,24.25,0,0,0,17.66,0,19.1,19.1,0,0,0,7.16-5.08,25.11,25.11,0,0,0,4.85-8.64,37.89,37.89,0,0,0,1.8-12.34A37.89,37.89,0,0,0,729,90.4a25.12,25.12,0,0,0-4.85-8.64A19.1,19.1,0,0,0,717,76.67,23.32,23.32,0,0,0,708.2,75Zm0-6.47a48.51,48.51,0,0,1,15.11,2.22A32.19,32.19,0,0,1,735,77.32,29.5,29.5,0,0,1,742.49,88a37.67,37.67,0,0,1,2.68,14.7,37.67,37.67,0,0,1-2.68,14.7A29.5,29.5,0,0,1,735,128.16a32.19,32.19,0,0,1-11.65,6.56,52.75,52.75,0,0,1-30.27,0,32.14,32.14,0,0,1-11.69-6.56,29,29,0,0,1-7.49-10.72,38.25,38.25,0,0,1-2.63-14.7A38.25,38.25,0,0,1,673.86,88a29,29,0,0,1,7.49-10.72A32.14,32.14,0,0,1,693,70.75,48.94,48.94,0,0,1,708.2,68.54Zm61.47,8.78V99.5h33.74v6.93H769.67v28.65h-13.4V70.39H814.5v6.93H769.67Zm66.55,57.77h-13.4V70.39h13.4Z" style="fill:#1b1918"/><path d="M353.41,48.17a2.66,2.66,0,0,0,2-1,4.5,4.5,0,0,0,1.05-2.75l1.43-18.57h20V48.17h3v8.39h-4.29l-.71-5.71H356.62l-.71,5.71h-4.29V48.17h1.79Zm8-3.75a4,4,0,0,1-.46,1.64,5.2,5.2,0,0,1-.86,1.18,4.82,4.82,0,0,1-1.18.93h13.75V28.53h-10Zm43.39-12.14V50.85h-5V36.92h-.36l-8.21,13.93h-6.43V32.28h5V46.21h.36l8.21-13.93Zm21.61,4.46q0,3.5-4.46,4.29a6.92,6.92,0,0,1,3.87,1.66,4.23,4.23,0,0,1,1.3,3.16,4.7,4.7,0,0,1-.55,2.25,4.91,4.91,0,0,1-1.77,1.8,10.2,10.2,0,0,1-3.11,1.21,20.18,20.18,0,0,1-4.57.45,16.93,16.93,0,0,1-5.37-.8,14.78,14.78,0,0,1-3.91-1.87l1.43-2.14a20.08,20.08,0,0,0,3.29,1.62,11.57,11.57,0,0,0,4.21.7q2.82,0,3.91-.91a3.27,3.27,0,0,0,1.09-2.66,2.65,2.65,0,0,0-.89-2,3.55,3.55,0,0,0-2.5-.82h-6.25v-2.5h5.54a3.51,3.51,0,0,0,2.5-.84,2.88,2.88,0,0,0,.89-2.2,2.8,2.8,0,0,0-.95-2.2,4.42,4.42,0,0,0-3-.84,11,11,0,0,0-4.05.7,20.38,20.38,0,0,0-3.27,1.62l-1.43-2.14a14.85,14.85,0,0,1,3.89-1.87,17.83,17.83,0,0,1,9.18-.37,9.12,9.12,0,0,1,2.79,1.16,5.07,5.07,0,0,1,1.64,1.66,3.81,3.81,0,0,1,.54,1.93ZM435.37,45q0,3.39,4.11,3.39h5V41.56h-5q-4.11,0-4.11,3.39Zm9.11-5.89a4.87,4.87,0,0,0-1.34-3.79,5,5,0,0,0-3.48-1.21,10.75,10.75,0,0,0-5.89,1.79l-1.25-2.14a9.59,9.59,0,0,1,1.73-.93,15.59,15.59,0,0,1,1.95-.66,17.33,17.33,0,0,1,2-.41,12.82,12.82,0,0,1,1.84-.14,13.81,13.81,0,0,1,4,.54,8.53,8.53,0,0,1,3,1.54A6.57,6.57,0,0,1,448.85,36a7.29,7.29,0,0,1,.62,3.05V50.85h-10q-4.86,0-7.16-1.46A4.89,4.89,0,0,1,430,45a4.89,4.89,0,0,1,2.3-4.43q2.3-1.46,7.16-1.46Zm19.46-8.93a7.32,7.32,0,0,1-5.07-1.55,5.13,5.13,0,0,1-1.71-4h4.11a3,3,0,0,0,.8,2.2,2.51,2.51,0,0,0,3.75,0,3,3,0,0,0,.8-2.2h4.11a5.13,5.13,0,0,1-1.71,4A7.32,7.32,0,0,1,463.93,30.14Zm10.36,2.14V50.85h-5V36.92h-.36l-8.21,13.93h-6.43V32.28h5V46.21h.36l8.21-13.93Zm24.64,0V50.85h-5V42.64h-9.64v8.21h-5V32.28h5v7.86h9.64V32.28h5Zm30.35-6.43a18,18,0,0,1,4.8.59,10.37,10.37,0,0,1,3.59,1.71,7.6,7.6,0,0,1,2.25,2.75,9.09,9.09,0,0,1,0,7.39A7.6,7.6,0,0,1,537.68,41a10.37,10.37,0,0,1-3.59,1.71,18,18,0,0,1-4.8.59h-7.68v7.5h-5.18v-25h12.86Zm-7.68,2.68V40.67h7.68a6.08,6.08,0,0,0,4.37-1.48,6.08,6.08,0,0,0,1.55-4.59A6.08,6.08,0,0,0,533.66,30a6.08,6.08,0,0,0-4.37-1.48h-7.68Zm33,20.53a8.72,8.72,0,0,0,3.27-.61,12.89,12.89,0,0,0,3-1.71l1.43,2.14A8.49,8.49,0,0,1,560.73,50a11.2,11.2,0,0,1-2,.84,16,16,0,0,1-2.2.54,13.48,13.48,0,0,1-2.29.2,15.28,15.28,0,0,1-4.62-.66A9.92,9.92,0,0,1,546.11,49a8.57,8.57,0,0,1-2.27-3.12,10.71,10.71,0,0,1-.8-4.29,11.18,11.18,0,0,1,.77-4.27,8.68,8.68,0,0,1,2.14-3.14,9.26,9.26,0,0,1,3.27-1.93,12.61,12.61,0,0,1,4.18-.66,12.47,12.47,0,0,1,4,.64,9.51,9.51,0,0,1,3.29,1.87,9.08,9.08,0,0,1,2.21,3,9.22,9.22,0,0,1,.82,4v2.5H548.5a5.68,5.68,0,0,0,6.14,5.54Zm-1.25-15.18a4.73,4.73,0,0,0-1.93.39,4,4,0,0,0-1.55,1.25,6.85,6.85,0,0,0-1.07,2.21,12.24,12.24,0,0,0-.45,3.29h10a10.72,10.72,0,0,0-.43-3.21,6.88,6.88,0,0,0-1.12-2.23,4.32,4.32,0,0,0-1.61-1.29,4.43,4.43,0,0,0-1.84-.41Zm28,13.75,5.89-15.36h7.32V50.85h-5V37.28h-.36L584.1,50.85h-5.68l-5.21-13.57h-.36V50.85h-5V32.28h7.32l5.89,15.36Zm28.21,1.61a5.38,5.38,0,0,0,2.14-.43,4.6,4.6,0,0,0,1.75-1.34,6.83,6.83,0,0,0,1.2-2.37,12.23,12.23,0,0,0,.45-3.54,12.23,12.23,0,0,0-.45-3.54,6.83,6.83,0,0,0-1.2-2.37,4.61,4.61,0,0,0-1.75-1.34,5.57,5.57,0,0,0-4.29,0,4.61,4.61,0,0,0-1.75,1.34,6.83,6.83,0,0,0-1.2,2.37,12.23,12.23,0,0,0-.45,3.54,12.23,12.23,0,0,0,.45,3.54,6.83,6.83,0,0,0,1.2,2.37,4.61,4.61,0,0,0,1.75,1.34A5.38,5.38,0,0,0,609.63,49.24Zm0-17.68a14.11,14.11,0,0,1,4.41.66,9.64,9.64,0,0,1,3.45,1.93,8.73,8.73,0,0,1,2.23,3.14,11.78,11.78,0,0,1,0,8.55A8.77,8.77,0,0,1,617.49,49,9.63,9.63,0,0,1,614,50.9a15.11,15.11,0,0,1-8.84,0A9.65,9.65,0,0,1,601.78,49a8.77,8.77,0,0,1-2.23-3.12,11.78,11.78,0,0,1,0-8.55,8.73,8.73,0,0,1,2.23-3.14,9.66,9.66,0,0,1,3.43-1.93A14.07,14.07,0,0,1,609.63,31.57Zm34.64.71V50.85h-5V42.64h-9.64v8.21h-5V32.28h5v7.86h9.64V32.28Zm22.85,2.5h-7.5V50.85h-5V34.78h-7.5v-2.5h20v2.5Zm32.32,12.5h.36l9.28-21.43h7.68v25h-5.18v-20h-.36l-8.57,20h-6.07l-8.57-20h-.36v20h-5.18v-25h7.68l9.28,21.43Zm33,1.79a8.72,8.72,0,0,0,3.27-.61,12.89,12.89,0,0,0,3-1.71l1.43,2.14A8.49,8.49,0,0,1,738.57,50a11.2,11.2,0,0,1-2,.84,16,16,0,0,1-2.2.54,13.48,13.48,0,0,1-2.29.2,15.28,15.28,0,0,1-4.62-.66A9.92,9.92,0,0,1,723.95,49a8.57,8.57,0,0,1-2.27-3.12,10.71,10.71,0,0,1-.8-4.29,11.18,11.18,0,0,1,.77-4.27,8.68,8.68,0,0,1,2.14-3.14,9.26,9.26,0,0,1,3.27-1.93,12.61,12.61,0,0,1,4.18-.66,12.47,12.47,0,0,1,4,.64,9.51,9.51,0,0,1,3.29,1.87,9.08,9.08,0,0,1,2.21,3,9.22,9.22,0,0,1,.82,4v2.5H726.34a5.68,5.68,0,0,0,6.14,5.54Zm-1.25-15.18a4.73,4.73,0,0,0-1.93.39,4,4,0,0,0-1.55,1.25,6.85,6.85,0,0,0-1.07,2.21,12.24,12.24,0,0,0-.45,3.29h10a10.72,10.72,0,0,0-.43-3.21,6.88,6.88,0,0,0-1.12-2.23,4.32,4.32,0,0,0-1.61-1.29,4.43,4.43,0,0,0-1.84-.41Zm24.28,2.32a5.14,5.14,0,0,0-2,.41,5,5,0,0,0-1.71,1.21,5.71,5.71,0,0,0-1.18,2,8.31,8.31,0,0,0-.43,2.8,8.87,8.87,0,0,0,.43,2.91,5.85,5.85,0,0,0,1.18,2.05,4.92,4.92,0,0,0,1.71,1.23,5.25,5.25,0,0,0,4.07,0,4.92,4.92,0,0,0,1.71-1.23,5.84,5.84,0,0,0,1.18-2.05,8.87,8.87,0,0,0,.43-2.91,8.31,8.31,0,0,0-.43-2.8,5.7,5.7,0,0,0-1.18-2,5,5,0,0,0-1.71-1.21A5.14,5.14,0,0,0,755.51,36.21Zm.36-2.5a12.69,12.69,0,0,1,4.11.64,10,10,0,0,1,3.29,1.82,8.26,8.26,0,0,1,3,6.46,8.18,8.18,0,0,1-.8,3.64,8.52,8.52,0,0,1-2.21,2.82,10.1,10.1,0,0,1-3.37,1.82,13.83,13.83,0,0,1-4.32.64,13.48,13.48,0,0,1-4.32-.66A9.82,9.82,0,0,1,747.82,49a8.68,8.68,0,0,1-2.21-3,9.82,9.82,0,0,1-.8-4.07V37.81q0-5.61,2.68-8.46A11.35,11.35,0,0,1,755,26l9.28-.89v4.11l-8.93.89q-7.5.75-7.5,7.68h.36a7.25,7.25,0,0,1,3-3.07,9.72,9.72,0,0,1,4.71-1Zm24.82,15.36a8.72,8.72,0,0,0,3.27-.61,12.89,12.89,0,0,0,3-1.71l1.43,2.14A8.49,8.49,0,0,1,786.78,50a11.2,11.2,0,0,1-2,.84,16,16,0,0,1-2.2.54,13.48,13.48,0,0,1-2.29.2,15.28,15.28,0,0,1-4.62-.66A9.92,9.92,0,0,1,772.15,49a8.57,8.57,0,0,1-2.27-3.12,10.71,10.71,0,0,1-.8-4.29,11.18,11.18,0,0,1,.77-4.27A8.68,8.68,0,0,1,772,34.15a9.26,9.26,0,0,1,3.27-1.93,12.61,12.61,0,0,1,4.18-.66,12.47,12.47,0,0,1,4,.64,9.51,9.51,0,0,1,3.29,1.87,9.08,9.08,0,0,1,2.21,3,9.22,9.22,0,0,1,.82,4v2.5H774.55a5.68,5.68,0,0,0,6.14,5.54Zm-1.25-15.18a4.73,4.73,0,0,0-1.93.39A4,4,0,0,0,776,35.53a6.85,6.85,0,0,0-1.07,2.21,12.23,12.23,0,0,0-.45,3.29h10a10.72,10.72,0,0,0-.43-3.21,6.87,6.87,0,0,0-1.13-2.23,4.32,4.32,0,0,0-1.61-1.29,4.43,4.43,0,0,0-1.84-.41Zm11.43,15h1.07a1.89,1.89,0,0,0,.86-.2,1.83,1.83,0,0,0,.7-.66,4.13,4.13,0,0,0,.5-1.25,11.17,11.17,0,0,0,.27-2l.71-12.5h17.14V50.85h-5V34.78h-7.5l-.54,10q-.18,3.61-1.7,5.11a5.71,5.71,0,0,1-4.2,1.5,6.47,6.47,0,0,1-1.57-.18,6.92,6.92,0,0,1-.75-.18V48.88Zm36.6-10.18q4.57,0,6.66,1.62a5.78,5.78,0,0,1,0,8.89q-2.09,1.62-6.66,1.62H817.12V32.28h5v6.43h5.36Zm-5.36,2.5v7.14h5.36a3.34,3.34,0,0,0,2.5-.91,3.65,3.65,0,0,0,.89-2.66,3.65,3.65,0,0,0-.89-2.66,3.34,3.34,0,0,0-2.5-.91Z" style="fill:#e30016"/></svg>