<?xml version="1.0" encoding="utf-8"?>
<!-- Generator: Adobe Illustrator 21.1.0, SVG Export Plug-In . SVG Version: 6.00 Build 0)  -->
<svg version="1.1" id="Layer_1" xmlns="http://www.w3.org/2000/svg" xmlns:xlink="http://www.w3.org/1999/xlink" x="0px" y="0px"
	 width="140px" height="46px" viewBox="0 0 140 46" enable-background="new 0 0 140 46" xml:space="preserve">
<g>
	<polyline  class="border" fill="none" stroke="#E6E6E6" stroke-width="2" stroke-miterlimit="10" points="119,4 139,4 139,44 1,44 1,4 22,4 	"/>
	<g>
		<g>
			<path class="def" fill="#63D2C1" d="M25.83,6.98V0.51h5.63v6.47h-1.38V1.76h-2.86v5.22H25.83z"/>
			<path class="def" fill="#63D2C1" d="M36.17,0.51c1.56,0,2.79,0.5,2.79,2.17s-1.23,2.17-2.79,2.17h-1.05v2.12h-1.39V0.51H36.17z M36.24,1.73 h-1.12v1.9h1.12c0.71,0,1.31-0.19,1.31-0.95C37.55,1.92,36.95,1.73,36.24,1.73z"/>
			<path class="def" fill="#63D2C1" d="M44.02,0.38c2.29,0,3.44,1.61,3.44,3.36c0,1.76-1.15,3.36-3.44,3.36s-3.44-1.61-3.44-3.36
				C40.59,1.99,41.73,0.38,44.02,0.38z M44.02,1.67C42.67,1.67,42,2.61,42,3.75s0.67,2.08,2.02,2.08c1.34,0,2.01-0.94,2.01-2.08 S45.36,1.67,44.02,1.67z"/>
			<path class="def" fill="#63D2C1" d="M53.94,0.51v1.22h-3.17v1.38h2.89v1.21h-2.89v1.44h3.22v1.22h-4.61V0.51H53.94z"/>
			<path class="def" fill="#63D2C1" d="M56.03,6.98V0.51h1.39v2.57h1.04l1.63-2.57h1.54l-2.1,3.15l2.22,3.32h-1.53l-1.76-2.64h-1.04v2.64H56.03z"/>
			<path class="def" fill="#63D2C1" d="M68.44,0.51v1.25h-1.99v5.22h-1.38V1.76h-1.99V0.51H68.44z"/>
			<path class="def" fill="#63D2C1" d="M76.26,0.38c0.65,0,1.29,0.14,1.85,0.42v1.32c-0.41-0.32-1.02-0.51-1.62-0.51 c-1.14,0-2.28,0.65-2.28,2.21c-0.01,1.42,1.15,2.05,2.28,2.05c0.67,0,1.27-0.18,1.66-0.54v1.36c-0.55,0.27-1.19,0.42-1.88,0.42
				c-1.73,0-3.49-1.04-3.49-3.29C72.8,1.46,74.53,0.38,76.26,0.38z"/>
			<path class="def" fill="#63D2C1" d="M85.07,0.51v1.25h-1.99v5.22H81.7V1.76h-1.99V0.51H85.07z"/>
			<path class="def" fill="#63D2C1" d="M88.18,7.11c-0.31,0-0.66-0.07-0.98-0.16V5.78c0.22,0.07,0.49,0.12,0.75,0.12c0.42,0,0.77-0.1,1-0.58 l0.11-0.23l-2.58-4.57h1.53l1.7,3.33l1.41-3.33h1.52L90.3,5.5C89.71,6.76,89,7.11,88.18,7.11z"/>
			<path class="def" fill="#63D2C1" d="M93.23,8.38V5.76h0.76c0.83-1.49,1.03-3.45,1.03-5.25h4.4v5.25h0.82v2.62h-1.22v-1.4h-4.56v1.4H93.23z M95.46,5.76h2.57v-4h-1.72C96.21,3.19,96.01,4.7,95.46,5.76z"/>
			<path class="def" fill="#63D2C1" d="M106.37,6.98V3.65c0-0.3,0.01-0.62,0.03-0.89l-3.01,4.22h-1.3V0.51h1.39v3.33c0,0.3-0.01,0.62-0.03,0.89 l3.01-4.22h1.3v6.47H106.37z"/>
			<path class="def" fill="#63D2C1" d="M114.33,6.98V3.65c0-0.3,0.01-0.62,0.03-0.89l-3.01,4.22h-1.3V0.51h1.39v3.33c0,0.3-0.01,0.62-0.03,0.89 l3.01-4.22h1.3v6.47H114.33z"/>
		</g>
	</g>
	<g>
		<g>
			<g>
				<path class="title" d="M19.44,22.27h1.08c0.61,0,1.14,0.06,1.57,0.18c0.43,0.12,0.78,0.32,1.05,0.59c0.27,0.27,0.46,0.62,0.58,1.05 c0.12,0.43,0.18,0.96,0.18,1.57c0,0.6-0.06,1.1-0.18,1.53c-0.12,0.42-0.32,0.76-0.58,1.03c-0.27,0.26-0.61,0.45-1.05,0.58 c-0.43,0.12-0.95,0.19-1.57,0.19c-0.46,0-0.89-0.02-1.28-0.07c-0.39-0.05-0.79-0.13-1.18-0.24V18.03h5.38v1.08h-4V22.27z M19.44,23.35v4.62h1.08c0.7,0,1.2-0.17,1.52-0.52s0.48-0.94,0.48-1.8c0-0.85-0.16-1.45-0.48-1.8 c-0.32-0.34-0.82-0.52-1.52-0.52H19.44z"/>
				<path class="title" d="M27.18,28.88H25.8V18.24c0.39-0.11,0.78-0.19,1.18-0.24c0.39-0.05,0.82-0.07,1.28-0.07c0.61,0,1.14,0.06,1.57,0.19 c0.43,0.13,0.78,0.34,1.04,0.64s0.46,0.69,0.58,1.19c0.12,0.49,0.18,1.1,0.18,1.83c0,0.75-0.06,1.38-0.18,1.88 c-0.12,0.5-0.3,0.91-0.54,1.21c-0.24,0.3-0.54,0.52-0.91,0.65c-0.36,0.13-0.8,0.19-1.3,0.19c-0.24,0-0.5-0.02-0.8-0.05 c-0.3-0.03-0.54-0.07-0.74-0.11V28.88z M28.26,24.64c0.35,0,0.65-0.04,0.9-0.13c0.25-0.09,0.46-0.24,0.62-0.45 c0.16-0.22,0.28-0.51,0.36-0.88c0.08-0.37,0.11-0.83,0.11-1.39c0-0.55-0.04-1.02-0.11-1.39c-0.08-0.37-0.2-0.66-0.36-0.88 s-0.37-0.37-0.62-0.45c-0.25-0.09-0.55-0.13-0.9-0.13h-1.07v5.7H28.26z"/>
				<path class="title" d="M34.54,26.04l-0.69,2.77h-1.38l2.61-10.79h2l2.61,10.79h-1.38l-0.69-2.77H34.54z M36.11,19.57h-0.06l-1.28,5.39h2.61 L36.11,19.57z"/>
				<path class="title" d="M39.83,18.03h6.3v1.28h-2.46v9.5h-1.38v-9.5h-2.46V18.03z"/>
				<path class="title" d="M50.72,22.27c0.99,0,1.73,0.26,2.2,0.77c0.48,0.51,0.71,1.39,0.71,2.62c0,0.6-0.06,1.1-0.18,1.53 c-0.12,0.42-0.32,0.76-0.58,1.03c-0.27,0.26-0.61,0.45-1.05,0.58c-0.43,0.12-0.95,0.19-1.57,0.19c-0.46,0-0.89-0.02-1.28-0.07 c-0.4-0.05-0.79-0.13-1.18-0.24V18.03h1.38v4.39c0.19-0.04,0.44-0.08,0.74-0.11C50.22,22.28,50.48,22.27,50.72,22.27z M49.18,23.35v4.62h1.08c0.7,0,1.2-0.17,1.52-0.52c0.32-0.34,0.48-0.94,0.48-1.8c0-0.85-0.16-1.45-0.48-1.8 c-0.32-0.34-0.83-0.52-1.52-0.52H49.18z"/>
				<path class="title" d="M57.51,24.04c-0.25-0.04-0.49-0.13-0.74-0.26c-0.25-0.13-0.47-0.32-0.67-0.56c-0.19-0.24-0.35-0.54-0.48-0.89 c-0.12-0.35-0.19-0.76-0.19-1.22c0-0.58,0.06-1.07,0.19-1.48c0.12-0.41,0.32-0.75,0.58-1.01s0.61-0.45,1.04-0.57 c0.43-0.12,0.95-0.18,1.57-0.18c0.46,0,0.89,0.02,1.28,0.07c0.39,0.05,0.79,0.13,1.17,0.24v10.63h-1.38v-4.39h-0.61 c-0.31,0-0.59,0.1-0.86,0.29c-0.27,0.2-0.47,0.56-0.6,1.09l-0.31,1.31c-0.31,1.23-0.9,1.85-1.77,1.85 c-0.24,0-0.45-0.03-0.63-0.08c-0.1-0.02-0.2-0.05-0.29-0.08v-0.69c0.39,0,0.67-0.09,0.85-0.27c0.17-0.18,0.3-0.42,0.38-0.73 l0.31-1.31c0.11-0.5,0.27-0.89,0.46-1.17c0.2-0.28,0.43-0.46,0.69-0.54V24.04z M59.89,23.35v-4.47h-1.07 c-0.7,0-1.2,0.17-1.52,0.51c-0.32,0.34-0.48,0.91-0.48,1.73c0,0.81,0.16,1.39,0.48,1.73c0.32,0.34,0.82,0.51,1.52,0.51H59.89z" />
				<path class="title" d="M70.03,23.16c-0.17-0.05-0.33-0.12-0.46-0.2c-0.13-0.08-0.26-0.19-0.37-0.34c-0.11-0.14-0.21-0.33-0.3-0.55 c-0.09-0.22-0.17-0.49-0.25-0.81l-0.38-1.54c-0.08-0.31-0.21-0.55-0.38-0.73c-0.17-0.18-0.46-0.27-0.84-0.27v-0.69 c0.07-0.02,0.16-0.05,0.26-0.08c0.08-0.02,0.18-0.04,0.28-0.05c0.11-0.02,0.23-0.02,0.38-0.02c0.87,0,1.46,0.62,1.77,1.85 l0.38,1.54c0.13,0.53,0.32,0.9,0.55,1.09c0.23,0.2,0.49,0.29,0.75,0.29h0.38v-4.62h1.38v4.62h0.38c0.27,0,0.52-0.1,0.75-0.29 c0.23-0.2,0.42-0.56,0.55-1.09l0.38-1.54c0.31-1.23,0.9-1.85,1.77-1.85c0.13,0,0.26,0.01,0.37,0.02 c0.11,0.02,0.21,0.03,0.29,0.05c0.1,0.03,0.19,0.06,0.26,0.08v0.69c-0.39,0-0.67,0.09-0.85,0.27c-0.17,0.18-0.3,0.42-0.38,0.73 l-0.38,1.54c-0.08,0.32-0.17,0.59-0.25,0.81c-0.09,0.22-0.19,0.4-0.3,0.55c-0.11,0.14-0.24,0.26-0.37,0.34 c-0.13,0.08-0.29,0.15-0.46,0.2v0.06c0.19,0.05,0.37,0.12,0.53,0.2c0.16,0.08,0.3,0.2,0.43,0.34c0.13,0.14,0.24,0.33,0.34,0.55 c0.1,0.22,0.18,0.49,0.24,0.81l0.38,2c0.05,0.27,0.17,0.5,0.36,0.7c0.19,0.2,0.48,0.3,0.87,0.3v0.69 c-0.07,0.03-0.16,0.06-0.26,0.08c-0.18,0.05-0.4,0.08-0.66,0.08c-0.46,0-0.84-0.15-1.14-0.46c-0.3-0.31-0.51-0.77-0.62-1.39 l-0.38-2c-0.1-0.54-0.28-0.91-0.55-1.1c-0.26-0.19-0.57-0.29-0.91-0.29h-0.38v5.09h-1.38v-5.09h-0.38 c-0.35,0-0.65,0.1-0.91,0.29c-0.26,0.19-0.44,0.56-0.55,1.1l-0.38,2c-0.24,1.23-0.82,1.85-1.77,1.85 c-0.26,0-0.47-0.03-0.66-0.08c-0.1-0.02-0.19-0.05-0.26-0.08v-0.69c0.39,0,0.68-0.1,0.87-0.3c0.19-0.2,0.31-0.43,0.36-0.7 l0.38-2c0.06-0.32,0.14-0.59,0.24-0.81c0.1-0.22,0.21-0.4,0.34-0.55c0.13-0.14,0.27-0.26,0.43-0.34 c0.16-0.08,0.33-0.15,0.53-0.2V23.16z"/>
				<path class="title" d="M84.65,20.8h-0.08l-3.15,8.01h-1.54V18.03h1.38v8.01h0.08l3.07-8.01h1.61v10.79h-1.38V20.8z"/>
				<path class="title" d="M88.38,28.97c-0.26,0-0.48-0.03-0.66-0.08c-0.1-0.02-0.19-0.05-0.26-0.08v-0.69c0.22,0,0.41-0.04,0.58-0.12 c0.17-0.08,0.33-0.22,0.46-0.42c0.13-0.2,0.24-0.46,0.33-0.79c0.09-0.32,0.14-0.73,0.16-1.21l0.38-7.55h5.15v10.79h-1.38v-9.71 h-2.43l-0.34,6.47c-0.03,0.62-0.11,1.14-0.22,1.57c-0.12,0.43-0.27,0.78-0.45,1.05c-0.18,0.27-0.38,0.46-0.61,0.59 C88.87,28.91,88.63,28.97,88.38,28.97z"/>
				<path class="title" d="M101.63,20.8h-0.08l-3.15,8.01h-1.54V18.03h1.38v8.01h0.08l3.07-8.01h1.61v10.79h-1.38V20.8z"/>
				<path class="title" d="M111.36,18.03v10.79h-1.38v-4.93h-3.23v4.93h-1.38V18.03h1.38v4.78h3.23v-4.78H111.36z"/>
				<path class="title" d="M116.63,22.27c0.96,0,1.68,0.26,2.14,0.77c0.47,0.51,0.7,1.39,0.7,2.62c0,0.6-0.06,1.1-0.19,1.53 c-0.12,0.42-0.31,0.76-0.58,1.03c-0.26,0.26-0.6,0.45-1.02,0.58c-0.42,0.12-0.93,0.19-1.52,0.19c-0.46,0-0.89-0.02-1.28-0.07 c-0.39-0.05-0.79-0.13-1.18-0.24V18.03h1.38v4.39c0.19-0.04,0.44-0.08,0.74-0.11C116.13,22.28,116.39,22.27,116.63,22.27z M115.09,23.35v4.62h1.07c0.66,0,1.14-0.17,1.45-0.52c0.31-0.34,0.47-0.94,0.47-1.8c0-0.85-0.16-1.45-0.47-1.8 c-0.31-0.34-0.8-0.52-1.45-0.52H115.09z M122.16,18.03v10.79h-1.38V18.03H122.16z"/>
			</g>
		</g>
	</g>
</g>
</svg>
