<svg xmlns="http://www.w3.org/2000/svg" width="25.5" height="19.8" viewBox="0 0 25.5 19.8"><g fill="#EB5935"><path d="M21.3.9H3.2C1.6.9 1.3 2.7 1.3 4.3v12.4c0 1.6.3 2.2 1.9 2.2h18.1c1.6 0 2.9-.6 2.9-2.2V4.3c.1-1.6-1.3-3.4-2.9-3.4zm1.6 15c0 1-.7 2-1.6 2H3.2c-.9 0-.9-.4-.9-1.2V4.3c0-.9.1-2.4.9-2.4h18.1c.9 0 1.9 1.5 1.9 2.4v11.6h-.3zm0 .8"/><path d="M15.4 10.3L21.3 5c.3-.2.3-.7 0-.9-.2-.3-.7-.3-.9 0l-8.1 7.3-1.6-1.4-.1-.1-6.5-5.8c-.2-.3-.7-.3-.9 0-.3.3-.2.7 0 1l5.9 5.3-5.9 5.5c-.3.3-.3.7 0 .9.1.1.3.2.5.2s.3-.1.5-.2l6-5.6 1.6 1.5c.1.1.3.2.4.2.2 0 .3-.1.4-.2l1.7-1.5 6 5.7c.1.1.3.2.5.2s.4-.1.5-.2c.3-.3.2-.7 0-.9l-5.9-5.7zm0 0"/></g></svg>