<svg data-name="Layer 1" xmlns="http://www.w3.org/2000/svg" viewBox="0 0 23 64.213">
	<path class="55ece130-8303-458d-99c6-a59dce318d65" d="M47.5,41.5A1.5,1.5,0,0,1,46,40V35a1.5,1.5,0,0,1,3,0v5A1.5,1.5,0,0,1,47.5,41.5Z" transform="translate(-36 -12.718)" style="fill:rgba(0,0,0,0);"/>
	<path class="55ece130-8303-458d-99c6-a59dce318d65" d="M47.068,76.931l-5.546-5.546a1.5,1.5,0,0,1,2.121-2.121l3.425,3.425,3.425-3.425a1.5,1.5,0,0,1,2.121,2.121Z" transform="translate(-36 -12.718)" style="fill:rgba(0,0,0,0);"/>
	<path class="55ece130-8303-458d-99c6-a59dce318d65" d="M51.554,20.824a1.5,1.5,0,0,1-1.061-.439L47.068,16.96l-3.425,3.425a1.5,1.5,0,0,1-2.121-2.121l5.546-5.546,5.546,5.546A1.5,1.5,0,0,1,51.554,20.824Z" transform="translate(-36 -12.718)" style="fill:rgba(0,0,0,0);"/>
	<path class="55ece130-8303-458d-99c6-a59dce318d65" d="M47.5,63A11.513,11.513,0,0,1,36,51.5v-14a11.5,11.5,0,0,1,23,0v14A11.513,11.513,0,0,1,47.5,63Zm0-34A8.51,8.51,0,0,0,39,37.5v14a8.5,8.5,0,0,0,17,0v-14A8.51,8.51,0,0,0,47.5,29Z" transform="translate(-36 -12.718)" style="fill:rgba(0,0,0,0);"/>
	</svg>