<svg xmlns="http://www.w3.org/2000/svg" width="22.7" height="22.7" viewBox="0 0 22.7 22.7"><g fill="#EB5935"><path d="M17.8 5.8h-.5V4.5c0-1.7-1.5-3.7-3.2-3.7H7.6c-1.7 0-2.3 2-2.3 3.7v1.3H4c-1.7 0-2.7 1.3-2.7 3v5c0 1.7 1 3 2.7 3h1.3v4c0 .9-.1 1 .7 1h9.6c.9 0 1.6-.1 1.6-1v-4h.5c1.7 0 3.5-1.3 3.5-3v-5c.1-1.7-1.7-3-3.4-3zM6.3 4.5c0-1.1.2-2.7 1.3-2.7h6.5c1.1 0 2.2 1.6 2.2 2.7v1.3h-10V4.5zm10 16.4c0 .2-.4 0-.6 0H6.1c-.2 0 .3.3.3 0v-7h10v7zm4-7.1c0 1.1-1.5 2-2.5 2h-.5v-2h.7c.3 0 .6-.2.6-.5s-.3-.5-.6-.5H3.7c-.3 0-.6.2-.6.5s.3.5.6.5h1.7v2H4c-1.1 0-1.7-.9-1.7-2v-5c0-1.1.6-2 1.7-2h13.8c1.1 0 2.5.9 2.5 2v5zm-.6 0"/><path d="M7.1 16.8h7.5c.3 0 .6-.2.6-.5s-.3-.5-.6-.5H7.1c-.3 0-.6.2-.6.5 0 .4.3.5.6.5zm0 .5M14.7 17.8H7.2c-.3 0-.6.7-.6 1s.3 1 .6 1h7.5c.3 0 .6-.7.6-1s-.3-1-.6-1zm0 .7M17.8 7.8h-1.2c-.3 0-.6.2-.6.5s.3.5.6.5h1.2c.3 0 .6-.2.6-.5s-.3-.5-.6-.5zm0 .2"/></g></svg>