<?xml version="1.0" encoding="utf-8"?>
<!-- Generator: Adobe Illustrator 21.0.0, SVG Export Plug-In . SVG Version: 6.00 Build 0)  -->
<svg version="1.1" id="Layer_1" xmlns="http://www.w3.org/2000/svg" xmlns:xlink="http://www.w3.org/1999/xlink" x="0px" y="0px"
	 viewBox="0 0 24 58" style="enable-background:new 0 0 24 58;" xml:space="preserve">
<style type="text/css">
	.st0{fill:#F15834;}
</style>
<title>scroll-button</title>
<g id="_x35_5d6e74c-d55f-4582-b585-ba6d124269f5">
	<g id="_x34_a515ca3-d6e9-4691-82b3-2cacb283a33e">
		<path class="st0" d="M12,28c-0.8,0-1.5-0.7-1.5-1.5v-5c0-0.8,0.7-1.5,1.5-1.5s1.5,0.7,1.5,1.5v5C13.5,27.3,12.8,28,12,28z"/>
		<path class="st0" d="M12,57.1l-4.5-4.5c-0.6-0.6-0.6-1.5,0-2.1c0.6-0.6,1.5-0.6,2.1,0l2.4,2.4l2.4-2.4c0.6-0.6,1.5-0.6,2.1,0
			c0.6,0.6,0.6,1.5,0,2.1L12,57.1z"/>
		<path class="st0" d="M8.5,8C7.7,8,7,7.3,7,6.5c0-0.4,0.2-0.8,0.4-1.1L12,0.9l4.5,4.5c0.6,0.6,0.6,1.5,0,2.1
			c-0.6,0.6-1.5,0.6-2.1,0L12,5.1L9.6,7.5C9.3,7.8,8.9,8,8.5,8z"/>
		<path class="st0" d="M12,45.5c-6.1,0-11-4.9-11-11v-11c0-6.1,4.9-11,11-11s11,4.9,11,11v11C23,40.5,18.1,45.5,12,45.5z M12,15.5
			c-4.4,0-8,3.6-8,8v11c0,4.4,3.6,8,8,8s8-3.6,8-8v-11C20,19.1,16.4,15.5,12,15.5z"/>
	</g>
</g>
</svg>
