<svg id="8f53f647-e6b2-4d17-b286-c73ebbe5b34b" data-name="Layer 1" xmlns="http://www.w3.org/2000/svg" viewBox="0 0 19.97 27.59"><defs><style>.ccab6198-1830-4029-96f5-ba19644f31ae{fill:#fff;}</style></defs><title>scroll-top</title><path class="ccab6198-1830-4029-96f5-ba19644f31ae" d="M46.5,59.5A1.5,1.5,0,0,1,45,58V43a1.5,1.5,0,0,1,3,0V58A1.5,1.5,0,0,1,46.5,59.5Z" transform="translate(-36.847 -31.91)"/><path class="ccab6198-1830-4029-96f5-ba19644f31ae" d="M55.317,43.377a1.5,1.5,0,0,1-1.061-.439l-7.424-7.424-7.425,7.424a1.5,1.5,0,0,1-2.121-2.121l8.485-8.485a1.545,1.545,0,0,1,2.122,0l8.484,8.485A1.5,1.5,0,0,1,55.317,43.377Z" transform="translate(-36.847 -31.91)"/></svg>