<svg data-name="Layer 1" xmlns="http://www.w3.org/2000/svg" viewBox="0 0 253 253">
	<path class="" d="M46,171.5A126.5,126.5,0,1,1,172.5,45,126.643,126.643,0,0,1,46,171.5Zm0-250A123.5,123.5,0,1,0,169.5,45,123.64,123.64,0,0,0,46-78.5Z" transform="translate(80.5 81.5)" style="fill:rgba(0,0,0,0);"/>
	<path class="triangle" d="M6.5,112.458a1.5,1.5,0,0,1-1.5-1.5v-126.3a1.5,1.5,0,0,1,.75-1.3,1.5,1.5,0,0,1,1.5,0L116.625,46.512a1.5,1.5,0,0,1,0,2.6L7.25,112.257A1.5,1.5,0,0,1,6.5,112.458ZM8-12.739v121.1l104.875-60.55Z" transform="translate(80.5 81.5)" style="fill:rgba(0,0,0,0);"/>
	</svg>