<svg data-name="Layer 1" xmlns="http://www.w3.org/2000/svg" viewBox="0 0 28.48 16.25"><path class="474a6b3a-fcb1-4f54-83c5-2e8d386fea35" d="M60.616,51.366a1.955,1.955,0,0,0-.1-0.186A14.774,14.774,0,0,0,57.687,47.9l-0.029-.03-0.015-.014-0.015-.015H57.613q-0.949-.905-1.2-1.216a1.142,1.142,0,0,1-.208-1.2,11.2,11.2,0,0,1,1.335-1.943q0.608-.785.963-1.26,2.566-3.411,2.225-4.36l-0.088-.148a0.865,0.865,0,0,0-.459-0.244,2.316,2.316,0,0,0-.949-0.037l-4.271.029a0.553,0.553,0,0,0-.3.008l-0.194.044-0.074.038-0.059.044a0.645,0.645,0,0,0-.164.155,1.02,1.02,0,0,0-.147.26,24.24,24.24,0,0,1-1.587,3.336q-0.549.92-1.009,1.594a7.742,7.742,0,0,1-.771.994,5.332,5.332,0,0,1-.564.511,0.545,0.545,0,0,1-.386.164l-0.252-.06a0.974,0.974,0,0,1-.333-0.363,1.614,1.614,0,0,1-.171-0.579q-0.044-.348-0.053-0.6c0-.168,0-0.406.008-0.712s0.015-.515.015-0.623q0-.564.021-1.224t0.037-1.045Q49,39.021,49,38.591a3.418,3.418,0,0,0-.052-0.675,2.285,2.285,0,0,0-.156-0.475,0.8,0.8,0,0,0-.3-0.355,1.7,1.7,0,0,0-.5-0.2,9.942,9.942,0,0,0-2-.193,9.736,9.736,0,0,0-3.544.357,1.989,1.989,0,0,0-.563.444q-0.267.327-.075,0.356a1.822,1.822,0,0,1,1.261.637l0.089,0.179a2.791,2.791,0,0,1,.207.682A6.848,6.848,0,0,1,43.5,40.43a11.436,11.436,0,0,1,0,1.854q-0.073.77-.14,1.2a2.4,2.4,0,0,1-.2.7,2.817,2.817,0,0,1-.179.326,0.254,0.254,0,0,1-.074.074,1.1,1.1,0,0,1-.4.075,0.941,0.941,0,0,1-.5-0.208,3.555,3.555,0,0,1-.615-0.571,7.623,7.623,0,0,1-.72-1.016q-0.4-.652-0.83-1.542l-0.237-.43q-0.223-.415-0.608-1.209t-0.682-1.535a0.985,0.985,0,0,0-.356-0.475l-0.074-.044A1.066,1.066,0,0,0,37.64,37.5a1.581,1.581,0,0,0-.341-0.1l-4.063.029a1.034,1.034,0,0,0-.845.282l-0.06.089a0.485,0.485,0,0,0-.044.237,1.175,1.175,0,0,0,.089.4q0.89,2.09,1.935,4.033T36.127,45.6Q36.9,46.791,37.7,47.843t1.06,1.35c0.173,0.2.309,0.346,0.408,0.444l0.371,0.356a8.707,8.707,0,0,0,1.046.852,17.817,17.817,0,0,0,1.527.979,8.3,8.3,0,0,0,1.951.786,6.722,6.722,0,0,0,2.165.244h1.705a1.178,1.178,0,0,0,.786-0.326l0.059-.074a0.98,0.98,0,0,0,.111-0.275,1.507,1.507,0,0,0,.052-0.408,4.92,4.92,0,0,1,.1-1.149,3.011,3.011,0,0,1,.253-0.771,1.861,1.861,0,0,1,.319-0.437,1.261,1.261,0,0,1,.252-0.215,1,1,0,0,1,.118-0.053,0.944,0.944,0,0,1,.838.23,4.965,4.965,0,0,1,.9.86q0.422,0.512,1.015,1.149a7.075,7.075,0,0,0,1.038.949l0.3,0.178a3.585,3.585,0,0,0,.771.326,1.651,1.651,0,0,0,.83.075l3.8-.06a1.717,1.717,0,0,0,.874-0.186,0.734,0.734,0,0,0,.371-0.407,1.15,1.15,0,0,0,.008-0.5,1.925,1.925,0,0,0-.1-0.393h0Zm0,0" transform="translate(-32.287 -36.691)" style="fill:rgba(0,0,0,0);"/></svg>